<svg width="9" height="7" viewBox="0 0 9 7" fill="none" xmlns="http://www.w3.org/2000/svg">
<path d="M0 7V5.15789C0 4.59844 0.0965485 4.00487 0.289645 3.37719C0.489401 2.74269 0.775717 2.13207 1.14859 1.54532C1.52813 0.951754 1.98424 0.436647 2.51692 0L3.79535 1.06433C3.37587 1.67836 3.00965 2.31969 2.6967 2.9883C2.39041 3.6501 2.23726 4.35965 2.23726 5.11696V7H0ZM5.11374 7V5.15789C5.11374 4.59844 5.21029 4.00487 5.40338 3.37719C5.60314 2.74269 5.88946 2.13207 6.26233 1.54532C6.64187 0.951754 7.09798 0.436647 7.63066 0L8.90909 1.06433C8.4896 1.67836 8.12339 2.31969 7.81044 2.9883C7.50415 3.6501 7.351 4.35965 7.351 5.11696V7H5.11374Z" fill="white"/>
</svg>
